<?xml version="1.0" encoding="UTF-8"?>
<svg id="Böcklerpark" xmlns="http://www.w3.org/2000/svg" viewBox="0 0 595.26 397.56">
  <defs>
    <style>
      .cls-1 {
        fill: none;
        stroke: #74b674;
        stroke-linecap: round;
        stroke-linejoin: round;
      }

      .cls-2 {
        fill: #74b674;
      }
    </style>
  </defs>
  <path class="cls-2" d="M243.31,168.5c.32-.71,1.22-1.23,2-1.15l17.2,1.67c.78.08,2,.38,2.72.68l19.95,8.37c.72.3,1.34,1.19,1.38,1.96l.83,16.22c.04.78.66,1.67,1.37,1.99l19.12,8.44c.71.31,1.57,0,1.91-.7l2.04-4.24c.34-.7,1.19-1,1.9-.67l4.84,2.3c.7.33,1.22,1.24,1.15,2.02l-.34,3.61c-.07.78.16,1.98.52,2.67l2.83,5.49c.36.69,1.24,1.49,1.97,1.78l4.76,1.87c.73.29,1.95.62,2.72.75l14.55,2.44c.77.13,2.04.23,2.82.23h12.82c.78,0,1.66.59,1.96,1.31l.12.3c.3.72-.09,1.38-.86,1.46l-5.07.55c-.78.08-2.05.15-2.83.15h-7.11c-.78,0-2.04-.13-2.81-.28l-11.54-2.35c-.76-.16-2-.47-2.75-.69l-35.62-10.71c-.75-.22-1.97-.6-2.71-.82l-23.74-7.3c-.75-.23-1.98-.55-2.74-.71l-13.73-2.93c-.76-.16-2.01-.42-2.78-.57l-18.7-3.75c-.76-.15-1.13-.86-.8-1.57l12.66-27.81Z"/>
  <path class="cls-1" d="M243.31,168.5c.32-.71,1.22-1.23,2-1.15l17.2,1.67c.78.08,2,.38,2.72.68l19.95,8.37c.72.3,1.34,1.19,1.38,1.96l.83,16.22c.04.78.66,1.67,1.37,1.99l19.12,8.44c.71.31,1.57,0,1.91-.7l2.04-4.24c.34-.7,1.19-1,1.9-.67l4.84,2.3c.7.33,1.22,1.24,1.15,2.02l-.34,3.61c-.07.78.16,1.98.52,2.67l2.83,5.49c.36.69,1.24,1.49,1.97,1.78l4.76,1.87c.73.29,1.95.62,2.72.75l14.55,2.44c.77.13,2.04.23,2.82.23h12.82c.78,0,1.66.59,1.96,1.31l.12.3c.3.72-.09,1.38-.86,1.46l-5.07.55c-.78.08-2.05.15-2.83.15h-7.11c-.78,0-2.04-.13-2.81-.28l-11.54-2.35c-.76-.16-2-.47-2.75-.69l-35.62-10.71c-.75-.22-1.97-.6-2.71-.82l-23.74-7.3c-.75-.23-1.98-.55-2.74-.71l-13.73-2.93c-.76-.16-2.01-.42-2.78-.57l-18.7-3.75c-.76-.15-1.13-.86-.8-1.57l12.66-27.81Z"/>
</svg>