<?xml version="1.0" encoding="UTF-8"?>
<svg id="James-Simon-Park" xmlns="http://www.w3.org/2000/svg" viewBox="0 0 595.26 397.56">
  <defs>
    <style>
      .cls-1 {
        fill: none;
        stroke: #74b674;
        stroke-miterlimit: 10;
        stroke-width: .25px;
      }

      .cls-2 {
        fill: #74b674;
      }
    </style>
  </defs>
  <path class="cls-2" d="M312.36,187.98c1.56-.07,3.2,1.09,3.66,2.58l.14.46c.46,1.49.83,3.99.83,5.55v8.13c0,1.56-1.2,2.4-2.66,1.86l-33.8-12.35c-1.46-.54-1.45-1.36.04-1.83l6.19-1.96c1.49-.47,3.97-.96,5.53-1.09l9.21-.76c1.55-.13,4.1-.29,5.66-.36l5.2-.23Z"/>
  <path class="cls-1" d="M312.36,187.98c1.56-.07,3.2,1.09,3.66,2.58l.14.46c.46,1.49.83,3.99.83,5.55v8.13c0,1.56-1.2,2.4-2.66,1.86l-33.8-12.35c-1.46-.54-1.45-1.36.04-1.83l6.19-1.96c1.49-.47,3.97-.96,5.53-1.09l9.21-.76c1.55-.13,4.1-.29,5.66-.36l5.2-.23Z"/>
</svg>