<?xml version="1.0" encoding="UTF-8"?>
<svg id="Körnerpark" xmlns="http://www.w3.org/2000/svg" viewBox="0 0 595.26 397.56">
  <defs>
    <style>
      .cls-1 {
        fill: none;
        stroke: #74b674;
        stroke-miterlimit: 10;
        stroke-width: .25px;
      }

      .cls-2 {
        fill: #74b674;
      }
    </style>
  </defs>
  <path class="cls-2" d="M276.04,194.46c-.28-1.53.75-3.04,2.28-3.34l4.06-.81c1.53-.3,2.66-1.19,2.51-1.98s.97-1.71,2.49-2.06l11.23-2.56c1.52-.35,2.84-.1,2.94.54s1.42.9,2.94.57l7.21-1.57c1.52-.33,3.04.64,3.38,2.17l3.64,16.64c.33,1.52-.65,3.02-2.17,3.32l-34.41,6.81c-1.53.3-3.01-.71-3.29-2.24l-2.8-15.49Z"/>
  <path class="cls-1" d="M276.04,194.46c-.28-1.53.75-3.04,2.28-3.34l4.06-.81c1.53-.3,2.66-1.19,2.51-1.98s.97-1.71,2.49-2.06l11.23-2.56c1.52-.35,2.84-.1,2.94.54s1.42.9,2.94.57l7.21-1.57c1.52-.33,3.04.64,3.38,2.17l3.64,16.64c.33,1.52-.65,3.02-2.17,3.32l-34.41,6.81c-1.53.3-3.01-.71-3.29-2.24l-2.8-15.49Z"/>
</svg>