<?xml version="1.0" encoding="UTF-8"?>
<svg id="Mauerpark" xmlns="http://www.w3.org/2000/svg" viewBox="0 0 595.26 397.56">
  <defs>
    <style>
      .cls-1 {
        fill: none;
        stroke: #74b674;
        stroke-miterlimit: 10;
        stroke-width: .25px;
      }

      .cls-2 {
        fill: #74b674;
      }
    </style>
  </defs>
  <path class="cls-2" d="M293.01,274.33c-1.41.66-2.98,0-3.49-1.48l-23.41-67.73c-.51-1.47-1.12-3.94-1.35-5.48l-6.56-43.23c-.23-1.54-.77-4.03-1.2-5.53l-4.69-16.6c-.42-1.5.49-2.89,2.04-3.09l24.69-3.15c1.55-.2,4.08-.53,5.62-.75l51.03-7.06c1.54-.21,3.02.87,3.28,2.41l3.88,22.94c.26,1.54-.75,3.16-2.24,3.61l-43.15,13.01c-1.49.45-2.36,2.04-1.92,3.54l5.42,18.68c.43,1.5,2.02,2.4,3.53,2l6.12-1.61c1.51-.4,2.85.55,2.98,2.1l.7,8.16c.13,1.55.61,4.04,1.07,5.54l8.29,27.24c.45,1.49,1.81,3.52,3.01,4.52l7.25,5.99c1.2.99,2.19,3.08,2.19,4.64v1.57c0,1.56-.72,3.55-1.6,4.43s-1.69,2.87-1.8,4.43l-.11,1.59c-.11,1.56-1.41,3.24-2.88,3.73l-9.61,3.24c-1.48.5-3.84,1.45-5.25,2.11l-21.81,10.22Z"/>
  <path class="cls-1" d="M293.01,274.33c-1.41.66-2.98,0-3.49-1.48l-23.41-67.73c-.51-1.47-1.12-3.94-1.35-5.48l-6.56-43.23c-.23-1.54-.77-4.03-1.2-5.53l-4.69-16.6c-.42-1.5.49-2.89,2.04-3.09l24.69-3.15c1.55-.2,4.08-.53,5.62-.75l51.03-7.06c1.54-.21,3.02.87,3.28,2.41l3.88,22.94c.26,1.54-.75,3.16-2.24,3.61l-43.15,13.01c-1.49.45-2.36,2.04-1.92,3.54l5.42,18.68c.43,1.5,2.02,2.4,3.53,2l6.12-1.61c1.51-.4,2.85.55,2.98,2.1l.7,8.16c.13,1.55.61,4.04,1.07,5.54l8.29,27.24c.45,1.49,1.81,3.52,3.01,4.52l7.25,5.99c1.2.99,2.19,3.08,2.19,4.64v1.57c0,1.56-.72,3.55-1.6,4.43s-1.69,2.87-1.8,4.43l-.11,1.59c-.11,1.56-1.41,3.24-2.88,3.73l-9.61,3.24c-1.48.5-3.84,1.45-5.25,2.11l-21.81,10.22Z"/>
</svg>