<?xml version="1.0" encoding="UTF-8"?>
<svg id="Monbijoupark" xmlns="http://www.w3.org/2000/svg" viewBox="0 0 595.26 397.56">
  <defs>
    <style>
      .cls-1 {
        fill: none;
        stroke: #74b674;
        stroke-linecap: round;
        stroke-linejoin: round;
      }

      .cls-2 {
        fill: #74b674;
      }
    </style>
  </defs>
  <path class="cls-2" d="M268.76,214.51c-1.53-.29-2.42-1.75-1.98-3.24l.56-1.91c.44-1.5,1.85-2.51,3.13-2.25s2.53-.23,2.79-1.09,1.46-1.34,2.69-1.09,2.56-.77,2.97-2.27l1.42-5.29c.41-1.51-.03-3.06-.97-3.46s-1.34-1.95-.9-3.44l1.28-4.29c.45-1.49-.17-3.11-1.36-3.6s-1.79-2.1-1.33-3.59l1.31-4.21c.46-1.49,2.02-2.2,3.45-1.59l37,15.87c1.43.61,3.62,1.89,4.86,2.84l2.94,2.25c1.24.95,1.88,2.94,1.43,4.43l-4.56,15.06c-.45,1.49-2.05,3.05-3.56,3.46l-4.77,1.3c-1.5.41-3.87,1.33-5.26,2.04l-3.03,1.55c-1.39.71-3.73.9-5.22.41l-9.82-3.21c-1.48-.48-3.95-1.11-5.48-1.4l-17.6-3.3Z"/>
  <path class="cls-1" d="M268.76,214.51c-1.53-.29-2.42-1.75-1.98-3.24l.56-1.91c.44-1.5,1.85-2.51,3.13-2.25s2.53-.23,2.79-1.09,1.46-1.34,2.69-1.09,2.56-.77,2.97-2.27l1.42-5.29c.41-1.51-.03-3.06-.97-3.46s-1.34-1.95-.9-3.44l1.28-4.29c.45-1.49-.17-3.11-1.36-3.6s-1.79-2.1-1.33-3.59l1.31-4.21c.46-1.49,2.02-2.2,3.45-1.59l37,15.87c1.43.61,3.62,1.89,4.86,2.84l2.94,2.25c1.24.95,1.88,2.94,1.43,4.43l-4.56,15.06c-.45,1.49-2.05,3.05-3.56,3.46l-4.77,1.3c-1.5.41-3.87,1.33-5.26,2.04l-3.03,1.55c-1.39.71-3.73.9-5.22.41l-9.82-3.21c-1.48-.48-3.95-1.11-5.48-1.4l-17.6-3.3Z"/>
</svg>