<?xml version="1.0" encoding="UTF-8"?>
<svg id="Natur-Park_S체dgel채nde" data-name="Natur-Park S체dgel채nde" xmlns="http://www.w3.org/2000/svg" viewBox="0 0 595.26 397.56">
  <defs>
    <style>
      .cls-1 {
        fill: none;
        stroke: #74b674;
        stroke-miterlimit: 10;
        stroke-width: .25px;
      }

      .cls-2 {
        fill: #74b674;
      }
    </style>
  </defs>
  <path class="cls-2" d="M250.7,345.66c0,4.68,3.71,9.45,8.24,10.6l4.47,1.14c4.53,1.15,9.2-1.61,10.38-6.13l4.07-15.66c1.18-4.53,2.97-11.97,3.99-16.53l20.53-92.02c1.02-4.56,2.68-12.04,3.69-16.6l18.57-84.03c1.01-4.57,2.65-12.04,3.65-16.61l14.05-64.17c1-4.57.49-8.63-1.12-9.02s-4.2,2.9-5.74,7.32l-36.96,106.06c-1.54,4.42-4.07,11.64-5.62,16.05l-26.02,73.96c-1.55,4.41-3.87,11.7-5.14,16.2l-6.21,21.92c-1.28,4.5-2.8,11.98-3.39,16.62l-.36,2.8c-.59,4.64-1.07,12.26-1.07,16.94v31.17Z"/>
  <path class="cls-1" d="M250.7,345.66c0,4.68,3.71,9.45,8.24,10.6l4.47,1.14c4.53,1.15,9.2-1.61,10.38-6.13l4.07-15.66c1.18-4.53,2.97-11.97,3.99-16.53l20.53-92.02c1.02-4.56,2.68-12.04,3.69-16.6l18.57-84.03c1.01-4.57,2.65-12.04,3.65-16.61l14.05-64.17c1-4.57.49-8.63-1.12-9.02s-4.2,2.9-5.74,7.32l-36.96,106.06c-1.54,4.42-4.07,11.64-5.62,16.05l-26.02,73.96c-1.55,4.41-3.87,11.7-5.14,16.2l-6.21,21.92c-1.28,4.5-2.8,11.98-3.39,16.62l-.36,2.8c-.59,4.64-1.07,12.26-1.07,16.94v31.17Z"/>
</svg>