<?xml version="1.0" encoding="UTF-8"?>
<svg id="Park_am_Gleisdreieck_Ostpark" data-name="Park am Gleisdreieck Ostpark" xmlns="http://www.w3.org/2000/svg" viewBox="0 0 595.26 397.56">
  <defs>
    <style>
      .cls-1 {
        fill: none;
        stroke: #74b674;
        stroke-miterlimit: 10;
        stroke-width: .25px;
      }

      .cls-2 {
        fill: #74b674;
      }
    </style>
  </defs>
  <g>
    <path class="cls-2" d="M243.47,312.02c-.4,2.66.65,4.95,2.33,5.09s4.3-3.37,5.84-7.79l21.95-63.13c1.54-4.42,2.92-8.58,3.07-9.26s.27-2.58.27-4.23-3.64-4.19-8.09-5.63l-12.74-4.15c-4.45-1.45-8.24,1.19-8.43,5.86l-2.44,59.66c-.19,4.67-.5,10.8-.69,13.61s-.66,7.3-1.06,9.96Z"/>
    <path class="cls-1" d="M243.47,312.02c-.4,2.66.65,4.95,2.33,5.09s4.3-3.37,5.84-7.79l21.95-63.13c1.54-4.42,2.92-8.58,3.07-9.26s.27-2.58.27-4.23-3.64-4.19-8.09-5.63l-12.74-4.15c-4.45-1.45-8.24,1.19-8.43,5.86l-2.44,59.66c-.19,4.67-.5,10.8-.69,13.61s-.66,7.3-1.06,9.96Z"/>
  </g>
  <g>
    <path class="cls-2" d="M285,224.89c4.46,1.39,8.31-1.29,8.54-5.96l.3-6.07c.23-4.67,3.82-10.25,7.97-12.41l31.58-16.37c4.15-2.15,7.8-7.73,8.1-12.4l3.48-53.4c.3-4.67,1.44-12.21,2.53-16.76l2.64-11.06c1.09-4.55.96-8.82-.28-9.49s-3.02-1.61-3.97-2.08-3.07,2.72-4.72,7.1l-22.19,58.78c-1.65,4.38-6.3,6.8-10.34,5.38s-10.85-4.08-15.16-5.91l-5.75-2.46c-4.3-1.84-11.47-4.49-15.93-5.9l-.69-.22c-4.46-1.41-10.94-3.33-14.4-4.28s-6.29,2.11-6.29,6.79v22.81c0,4.68-.17,12.33-.37,17l-1.17,27.02c-.2,4.67,3.29,9.64,7.75,11.03l28.35,8.84Z"/>
    <path class="cls-1" d="M285,224.89c4.46,1.39,8.31-1.29,8.54-5.96l.3-6.07c.23-4.67,3.82-10.25,7.97-12.41l31.58-16.37c4.15-2.15,7.8-7.73,8.1-12.4l3.48-53.4c.3-4.67,1.44-12.21,2.53-16.76l2.64-11.06c1.09-4.55.96-8.82-.28-9.49s-3.02-1.61-3.97-2.08-3.07,2.72-4.72,7.1l-22.19,58.78c-1.65,4.38-6.3,6.8-10.34,5.38s-10.85-4.08-15.16-5.91l-5.75-2.46c-4.3-1.84-11.47-4.49-15.93-5.9l-.69-.22c-4.46-1.41-10.94-3.33-14.4-4.28s-6.29,2.11-6.29,6.79v22.81c0,4.68-.17,12.33-.37,17l-1.17,27.02c-.2,4.67,3.29,9.64,7.75,11.03l28.35,8.84Z"/>
  </g>
</svg>