<?xml version="1.0" encoding="UTF-8"?>
<svg id="Park_am_Gleisdreieck_Westpark" data-name="Park am Gleisdreieck Westpark" xmlns="http://www.w3.org/2000/svg" viewBox="0 0 595.26 397.56">
  <defs>
    <style>
      .cls-1 {
        fill: none;
        stroke: #74b674;
        stroke-miterlimit: 10;
        stroke-width: .25px;
      }

      .cls-2 {
        fill: #74b674;
      }
    </style>
  </defs>
  <path class="cls-2" d="M301.88,316.36c4.45,1.43,8.3-1.23,8.55-5.9l1.78-33.82c.25-4.67,1.19-11.5,2.09-15.18s2.06-7.29,2.57-8.02,1.07-5.16,1.24-9.84l.39-10.57c.17-4.67-.12-12.3-.65-16.95l-1.15-10.05c-.53-4.65-1.3-12.26-1.71-16.92l-.97-11.03c-.41-4.66.25-12.17,1.47-16.68l1.12-4.15c1.22-4.52,3.14-8.21,4.27-8.21s2.82-3.75,3.76-8.33l2.35-11.52c.94-4.58,2.19-12.13,2.78-16.77l2.58-20.16c.59-4.64-.17-10.1-1.7-12.14s-4.28-.19-6.13,4.11l-9.34,21.8c-1.84,4.3-3.95,11.6-4.69,16.21l-3.91,24.55c-.74,4.62-3.77,11.35-6.75,14.95l-9.74,11.78c-2.98,3.61-8.1,5.72-11.38,4.7s-6.94,1.85-8.14,6.37l-6.97,26.34c-1.2,4.52-2.17,12.05-2.17,16.73v42.03c0,4.68.23,12.02.51,16.32s.51,10.04.51,12.75,3.64,6.1,8.1,7.53l31.32,10.03Z"/>
  <path class="cls-1" d="M301.88,316.36c4.45,1.43,8.3-1.23,8.55-5.9l1.78-33.82c.25-4.67,1.19-11.5,2.09-15.18s2.06-7.29,2.57-8.02,1.07-5.16,1.24-9.84l.39-10.57c.17-4.67-.12-12.3-.65-16.95l-1.15-10.05c-.53-4.65-1.3-12.26-1.71-16.92l-.97-11.03c-.41-4.66.25-12.17,1.47-16.68l1.12-4.15c1.22-4.52,3.14-8.21,4.27-8.21s2.82-3.75,3.76-8.33l2.35-11.52c.94-4.58,2.19-12.13,2.78-16.77l2.58-20.16c.59-4.64-.17-10.1-1.7-12.14s-4.28-.19-6.13,4.11l-9.34,21.8c-1.84,4.3-3.95,11.6-4.69,16.21l-3.91,24.55c-.74,4.62-3.77,11.35-6.75,14.95l-9.74,11.78c-2.98,3.61-8.1,5.72-11.38,4.7s-6.94,1.85-8.14,6.37l-6.97,26.34c-1.2,4.52-2.17,12.05-2.17,16.73v42.03c0,4.68.23,12.02.51,16.32s.51,10.04.51,12.75,3.64,6.1,8.1,7.53l31.32,10.03Z"/>
</svg>