<?xml version="1.0" encoding="UTF-8"?>
<svg id="Rudolph-Wilde-Park" xmlns="http://www.w3.org/2000/svg" viewBox="0 0 595.26 397.56">
  <defs>
    <style>
      .cls-1 {
        fill: none;
        stroke: #74b674;
        stroke-miterlimit: 10;
        stroke-width: .25px;
      }

      .cls-2 {
        fill: #74b674;
      }
    </style>
  </defs>
  <path class="cls-2" d="M242.16,229.77c.11,4.68,3.22,6.14,6.89,3.25l10.2-8.01c3.68-2.89,10.06-7.07,14.18-9.28l36.38-19.56c4.12-2.22,9.73-4.37,12.46-4.79s8.79-.76,13.47-.76h8.42c4.68,0,8.58-3.83,8.67-8.5l.33-16.5c.09-4.68-2.86-8.5-6.56-8.5s-6.81,1.06-6.9,2.36-1.91,2.51-4.04,2.69-7.5,1.57-11.93,3.07l-2.25.76c-4.43,1.5-11.56,4.26-15.85,6.13l-7.98,3.48c-4.29,1.87-10.83,5.73-14.53,8.59l-3.36,2.59c-3.71,2.85-8.86,5.64-11.45,6.2s-5.74,1.84-6.99,2.86-3.13.87-4.18-.34-4.97.11-8.71,2.91l-.09.07c-3.74,2.81-6.71,8.93-6.6,13.6l.43,17.68Z"/>
  <path class="cls-1" d="M242.16,229.77c.11,4.68,3.22,6.14,6.89,3.25l10.2-8.01c3.68-2.89,10.06-7.07,14.18-9.28l36.38-19.56c4.12-2.22,9.73-4.37,12.46-4.79s8.79-.76,13.47-.76h8.42c4.68,0,8.58-3.83,8.67-8.5l.33-16.5c.09-4.68-2.86-8.5-6.56-8.5s-6.81,1.06-6.9,2.36-1.91,2.51-4.04,2.69-7.5,1.57-11.93,3.07l-2.25.76c-4.43,1.5-11.56,4.26-15.85,6.13l-7.98,3.48c-4.29,1.87-10.83,5.73-14.53,8.59l-3.36,2.59c-3.71,2.85-8.86,5.64-11.45,6.2s-5.74,1.84-6.99,2.86-3.13.87-4.18-.34-4.97.11-8.71,2.91l-.09.07c-3.74,2.81-6.71,8.93-6.6,13.6l.43,17.68Z"/>
</svg>