<?xml version="1.0" encoding="UTF-8"?>
<svg id="Schillerpark" xmlns="http://www.w3.org/2000/svg" viewBox="0 0 595.26 397.56">
  <defs>
    <style>
      .cls-1 {
        fill: none;
        stroke: #74b674;
        stroke-miterlimit: 10;
        stroke-width: .25px;
      }

      .cls-2 {
        fill: #74b674;
      }
    </style>
  </defs>
  <g>
    <path class="cls-2" d="M246.31,120.35c3.15-3.46,8.57-3.72,12.04-.59l45.82,41.4c3.47,3.14,3.65,8.45.4,11.81l-2.66,2.75c-3.25,3.36-7.51,8.61-9.46,11.67s-4.49,7.44-5.64,9.74-2.87,5.27-3.82,6.6-3.05,3.43-4.67,4.67-4.46,2.58-6.32,2.98-5.41-.18-7.89-1.29-7.3-4.63-10.71-7.83l-37.83-35.52c-3.41-3.2-3.62-8.65-.47-12.11l31.21-34.27Z"/>
    <path class="cls-1" d="M246.31,120.35c3.15-3.46,8.57-3.72,12.04-.59l45.82,41.4c3.47,3.14,3.65,8.45.4,11.81l-2.66,2.75c-3.25,3.36-7.51,8.61-9.46,11.67s-4.49,7.44-5.64,9.74-2.87,5.27-3.82,6.6-3.05,3.43-4.67,4.67-4.46,2.58-6.32,2.98-5.41-.18-7.89-1.29-7.3-4.63-10.71-7.83l-37.83-35.52c-3.41-3.2-3.62-8.65-.47-12.11l31.21-34.27Z"/>
  </g>
  <g>
    <path class="cls-2" d="M375.76,229.16c3.58,3.01,3.91,8.29.74,11.74l-31.46,34.17c-3.17,3.44-8.58,3.67-12.02.5l-39.48-36.3c-3.44-3.17-5.57-6.77-4.73-8.01s-.62-4.16-3.24-6.49-5.96-4.07-7.41-3.87-2.64-.97-2.64-2.61,2.81-5.58,6.24-8.76l.73-.67c3.43-3.18,7.47-8.21,8.97-11.17s4.22-7.46,6.04-9.98,5.47-6.44,8.13-8.69,5.73-3.42,6.84-2.58,1.51,2.15.89,2.9.94,3.4,3.46,5.88,8.41,4.43,13.09,4.33l5.53-.12c4.68-.1,10.17.14,12.2.54s7.09-1.05,11.23-3.22l15.04-7.88c4.14-2.17,8.44-.94,9.54,2.73s.93,7.26-.4,7.97-4.85,4.24-7.82,7.85l-7.87,9.56c-2.97,3.61-5.44,7.44-5.48,8.5s2.85,4.4,6.42,7.41l7.44,6.27Z"/>
    <path class="cls-1" d="M375.76,229.16c3.58,3.01,3.91,8.29.74,11.74l-31.46,34.17c-3.17,3.44-8.58,3.67-12.02.5l-39.48-36.3c-3.44-3.17-5.57-6.77-4.73-8.01s-.62-4.16-3.24-6.49-5.96-4.07-7.41-3.87-2.64-.97-2.64-2.61,2.81-5.58,6.24-8.76l.73-.67c3.43-3.18,7.47-8.21,8.97-11.17s4.22-7.46,6.04-9.98,5.47-6.44,8.13-8.69,5.73-3.42,6.84-2.58,1.51,2.15.89,2.9.94,3.4,3.46,5.88,8.41,4.43,13.09,4.33l5.53-.12c4.68-.1,10.17.14,12.2.54s7.09-1.05,11.23-3.22l15.04-7.88c4.14-2.17,8.44-.94,9.54,2.73s.93,7.26-.4,7.97-4.85,4.24-7.82,7.85l-7.87,9.56c-2.97,3.61-5.44,7.44-5.48,8.5s2.85,4.4,6.42,7.41l7.44,6.27Z"/>
  </g>
</svg>