<?xml version="1.0" encoding="UTF-8"?>
<svg id="Schlosspark_Charlottenburg" data-name="Schlosspark Charlottenburg" xmlns="http://www.w3.org/2000/svg" viewBox="0 0 595.26 397.56">
  <defs>
    <style>
      .cls-1 {
        fill: none;
        stroke: #74b674;
        stroke-linecap: round;
        stroke-linejoin: round;
      }

      .cls-2 {
        fill: #74b674;
      }
    </style>
  </defs>
  <path class="cls-2" d="M251.02,103.62c-.72-1.38-.05-2.75,1.48-3.04l31.54-5.91c1.53-.29,4-.91,5.49-1.38l29.06-9.22c1.49-.47,3.46.17,4.39,1.42l9.88,13.34c.93,1.25,2.1,3.48,2.61,4.96l8.43,24.46c.51,1.47,1.1,3.94,1.32,5.49l4.51,32.16c.22,1.54.52,4.08.66,5.63l4.43,46.38c.15,1.55.71,4.02,1.24,5.49l7.34,20.19c.53,1.47,1.94,3.49,3.13,4.5l8.93,7.59c1.19,1.01,3.36,2.27,4.83,2.79l15.87,5.7c1.47.53,2.33,2.19,1.92,3.69l-6.78,24.69c-.41,1.5-2.02,2.89-3.56,3.08l-66.94,8.25c-1.55.19-2.74,1.54-2.65,3s-1.1,2.79-2.65,2.96l-18.77,2.04c-1.55.17-2.82-.74-2.82-2.01s-1.27-2.18-2.82-2l-15.02,1.69c-1.55.17-2.95-.95-3.12-2.5l-11.99-112.33c-.17-1.55-1.5-3.26-2.96-3.79l-59.29-21.59c-1.46-.53-2.28-2.19-1.81-3.67l6.45-20.44c.47-1.49,1.79-3.57,2.94-4.63l6.24-5.76c1.15-1.06,3.19-2.56,4.54-3.34l34.85-20.04c1.35-.78,1.87-2.55,1.15-3.93l-2.03-3.91Z"/>
  <path class="cls-1" d="M251.02,103.62c-.72-1.38-.05-2.75,1.48-3.04l31.54-5.91c1.53-.29,4-.91,5.49-1.38l29.06-9.22c1.49-.47,3.46.17,4.39,1.42l9.88,13.34c.93,1.25,2.1,3.48,2.61,4.96l8.43,24.46c.51,1.47,1.1,3.94,1.32,5.49l4.51,32.16c.22,1.54.52,4.08.66,5.63l4.43,46.38c.15,1.55.71,4.02,1.24,5.49l7.34,20.19c.53,1.47,1.94,3.49,3.13,4.5l8.93,7.59c1.19,1.01,3.36,2.27,4.83,2.79l15.87,5.7c1.47.53,2.33,2.19,1.92,3.69l-6.78,24.69c-.41,1.5-2.02,2.89-3.56,3.08l-66.94,8.25c-1.55.19-2.74,1.54-2.65,3s-1.1,2.79-2.65,2.96l-18.77,2.04c-1.55.17-2.82-.74-2.82-2.01s-1.27-2.18-2.82-2l-15.02,1.69c-1.55.17-2.95-.95-3.12-2.5l-11.99-112.33c-.17-1.55-1.5-3.26-2.96-3.79l-59.29-21.59c-1.46-.53-2.28-2.19-1.81-3.67l6.45-20.44c.47-1.49,1.79-3.57,2.94-4.63l6.24-5.76c1.15-1.06,3.19-2.56,4.54-3.34l34.85-20.04c1.35-.78,1.87-2.55,1.15-3.93l-2.03-3.91Z"/>
</svg>