<?xml version="1.0" encoding="UTF-8"?>
<svg id="Tempelhofer_Feld" data-name="Tempelhofer Feld" xmlns="http://www.w3.org/2000/svg" viewBox="0 0 595.26 397.56">
  <defs>
    <style>
      .cls-1 {
        fill: none;
        stroke: #74b674;
        stroke-miterlimit: 10;
        stroke-width: .25px;
      }

      .cls-2 {
        fill: #74b674;
      }
    </style>
  </defs>
  <path class="cls-2" d="M475.06,374.46c4.61-.78,7.86-5.22,7.23-9.85l-5.26-38.42c-.64-4.63-.83-9.9-.44-11.7s3.01-6.34,5.82-10.08l2.69-3.59c2.81-3.74,6.16-7.54,7.46-8.44s6.09-2.49,10.65-3.53l8.59-1.96c4.56-1.04,10.69-2.35,13.61-2.91s6.61-2.36,8.19-3.99,2.87-5.04,2.87-7.57-.32-6.77-.72-9.42c-.39-2.65-1.55-5.87-2.56-7.16s-2.72-3.55-3.79-5.02-2.51-6.45-3.2-11.07l-1.58-10.61c-.69-4.63-1.91-12.18-2.7-16.79l-10-57.96c-.8-4.61-2.53-12.05-3.85-16.54l-1.53-5.18c-1.32-4.49-3.51-9.58-4.86-11.33s-5.04-3.17-8.19-3.17-6.98.46-8.5,1.02c-1.52.56-3.36-2.57-4.09-6.96s-4.93-9.28-9.33-10.87l-22.07-7.95c-4.4-1.59-11.43-1.19-15.63.88l-15.04,7.42c-4.19,2.07-10.37,1.09-13.72-2.17l-24.1-23.5c-3.35-3.27-9.05-8.36-12.66-11.33l-14.72-12.08c-3.62-2.97-5.57-9.09-4.35-13.6l3.45-12.7c1.23-4.51-1.42-9.36-5.88-10.76L299,.51c-4.46-1.4-9.11,1.14-10.32,5.66l-14.5,53.86c-1.22,4.52-6.02,7.86-10.68,7.42l-43.37-4.04c-4.66-.43-12.24-.13-16.85.67l-8.4,1.46c-4.61.8-11.68,3.39-15.71,5.76l-10.49,6.16c-4.03,2.37-9.69,7.32-12.57,11.01l-9.5,12.17c-2.88,3.69-6.72,10.23-8.55,14.54l-4.81,11.37c-1.82,4.31-7.14,7.83-11.82,7.83h-10.44c-4.68,0-10.33.09-12.56.21s-4.06,4.03-4.06,8.71v6.91c0,4.68-3.83,8.55-8.5,8.61l-15.23.2c-4.68.06-8.63,3.93-8.79,8.61l-3.16,92.38c-.16,4.67,3.1,10.27,7.25,12.43l28.38,14.8c4.15,2.16,10.7,6.09,14.56,8.73l20.68,14.12c3.86,2.64,9.99,7.22,13.61,10.18l28.01,22.92c3.62,2.96,9.81,7.44,13.75,9.96l12.07,7.7c3.94,2.52,10.59,6.29,14.77,8.4l17.87,8.99c4.18,2.1,11.25,4.97,15.71,6.38l18.72,5.9c4.46,1.41,11.9,3.08,16.53,3.72l14.76,2.04c4.63.64,12.25,1.16,16.93,1.16h5.03c4.68,0,12.28-.63,16.89-1.4l9.43-1.57c4.61-.77,12.01-2.62,16.44-4.12l12.79-4.33c4.43-1.5,10.16-4.08,12.73-5.74s6.46-1.66,8.63,0,7.09,3.44,10.92,3.95,10.74.29,15.35-.49l54.55-9.28Z"/>
  <path class="cls-1" d="M475.06,374.46c4.61-.78,7.86-5.22,7.23-9.85l-5.26-38.42c-.64-4.63-.83-9.9-.44-11.7s3.01-6.34,5.82-10.08l2.69-3.59c2.81-3.74,6.16-7.54,7.46-8.44s6.09-2.49,10.65-3.53l8.59-1.96c4.56-1.04,10.69-2.35,13.61-2.91s6.61-2.36,8.19-3.99,2.87-5.04,2.87-7.57-.32-6.77-.72-9.42c-.39-2.65-1.55-5.87-2.56-7.16s-2.72-3.55-3.79-5.02-2.51-6.45-3.2-11.07l-1.58-10.61c-.69-4.63-1.91-12.18-2.7-16.79l-10-57.96c-.8-4.61-2.53-12.05-3.85-16.54l-1.53-5.18c-1.32-4.49-3.51-9.58-4.86-11.33s-5.04-3.17-8.19-3.17-6.98.46-8.5,1.02c-1.52.56-3.36-2.57-4.09-6.96s-4.93-9.28-9.33-10.87l-22.07-7.95c-4.4-1.59-11.43-1.19-15.63.88l-15.04,7.42c-4.19,2.07-10.37,1.09-13.72-2.17l-24.1-23.5c-3.35-3.27-9.05-8.36-12.66-11.33l-14.72-12.08c-3.62-2.97-5.57-9.09-4.35-13.6l3.45-12.7c1.23-4.51-1.42-9.36-5.88-10.76L299,.51c-4.46-1.4-9.11,1.14-10.32,5.66l-14.5,53.86c-1.22,4.52-6.02,7.86-10.68,7.42l-43.37-4.04c-4.66-.43-12.24-.13-16.85.67l-8.4,1.46c-4.61.8-11.68,3.39-15.71,5.76l-10.49,6.16c-4.03,2.37-9.69,7.32-12.57,11.01l-9.5,12.17c-2.88,3.69-6.72,10.23-8.55,14.54l-4.81,11.37c-1.82,4.31-7.14,7.83-11.82,7.83h-10.44c-4.68,0-10.33.09-12.56.21s-4.06,4.03-4.06,8.71v6.91c0,4.68-3.83,8.55-8.5,8.61l-15.23.2c-4.68.06-8.63,3.93-8.79,8.61l-3.16,92.38c-.16,4.67,3.1,10.27,7.25,12.43l28.38,14.8c4.15,2.16,10.7,6.09,14.56,8.73l20.68,14.12c3.86,2.64,9.99,7.22,13.61,10.18l28.01,22.92c3.62,2.96,9.81,7.44,13.75,9.96l12.07,7.7c3.94,2.52,10.59,6.29,14.77,8.4l17.87,8.99c4.18,2.1,11.25,4.97,15.71,6.38l18.72,5.9c4.46,1.41,11.9,3.08,16.53,3.72l14.76,2.04c4.63.64,12.25,1.16,16.93,1.16h5.03c4.68,0,12.28-.63,16.89-1.4l9.43-1.57c4.61-.77,12.01-2.62,16.44-4.12l12.79-4.33c4.43-1.5,10.16-4.08,12.73-5.74s6.46-1.66,8.63,0,7.09,3.44,10.92,3.95,10.74.29,15.35-.49l54.55-9.28Z"/>
</svg>