<?xml version="1.0" encoding="UTF-8"?>
<svg id="Ebene_1" data-name="Ebene 1" xmlns="http://www.w3.org/2000/svg" viewBox="0 0 595.26 240.88">
  <defs>
    <style>
      .cls-1 {
        fill: none;
        stroke: #74b674;
        stroke-miterlimit: 10;
        stroke-width: .25px;
      }

      .cls-2 {
        fill: #74b674;
      }
    </style>
  </defs>
  <g>
    <path class="cls-2" d="M230.68,146.74c-.66-4.63.9-9.97,3.46-11.88,2.56-1.9,6.28-5.96,8.27-9.02,1.98-3.06,7.41-5.96,12.07-6.44l320.41-33.13c4.65-.48,9.41.95,10.56,3.18s4,5.07,6.31,6.31c2.31,1.24,3.79,6.06,3.27,10.71l-5.34,48.04c-.52,4.65-3.37,10.89-6.35,13.86s-9.06,6.58-13.51,8l-57.16,18.27c-4.46,1.42-11.79,3.59-16.31,4.82l-86.41,23.5c-4.51,1.23-12.03,2.03-16.7,1.79l-41.04-2.13c-4.67-.24-12.32-.3-16.99-.13l-15.47.57c-4.67.17-12.28.92-16.9,1.66l-5.75.92c-4.62.74-12.2,1.74-16.86,2.22l-9.24.96c-4.65.48-11.23.2-14.62-.63-3.39-.83-7.99-1.44-10.22-1.35-2.23.08-4.6-3.64-5.26-8.27l-10.23-71.85Z"/>
    <path class="cls-1" d="M230.68,146.74c-.66-4.63.9-9.97,3.46-11.88,2.56-1.9,6.28-5.96,8.27-9.02,1.98-3.06,7.41-5.96,12.07-6.44l320.41-33.13c4.65-.48,9.41.95,10.56,3.18s4,5.07,6.31,6.31c2.31,1.24,3.79,6.06,3.27,10.71l-5.34,48.04c-.52,4.65-3.37,10.89-6.35,13.86s-9.06,6.58-13.51,8l-57.16,18.27c-4.46,1.42-11.79,3.59-16.31,4.82l-86.41,23.5c-4.51,1.23-12.03,2.03-16.7,1.79l-41.04-2.13c-4.67-.24-12.32-.3-16.99-.13l-15.47.57c-4.67.17-12.28.92-16.9,1.66l-5.75.92c-4.62.74-12.2,1.74-16.86,2.22l-9.24.96c-4.65.48-11.23.2-14.62-.63-3.39-.83-7.99-1.44-10.22-1.35-2.23.08-4.6-3.64-5.26-8.27l-10.23-71.85Z"/>
  </g>
  <g>
    <path class="cls-2" d="M229.45,228.45c2.26-.7,3.51-5.05,2.78-9.67l-11.24-70.99c-.73-4.62-4.03-9.18-7.33-10.14s-7.99-4.01-10.42-6.79c-2.43-2.78-8.22-4.61-12.87-4.07l-169.24,19.67c-4.65.54-10.82,1.49-13.71,2.1-2.9.62-6,2.1-6.9,3.31s-.24,2.98,1.47,3.94,4.62,1.76,6.49,1.76,6.64,2.03,10.6,4.5l1.99,1.24c3.97,2.48,9.97,7.16,13.34,10.4l5.12,4.94c3.37,3.25,7.83,9.1,9.91,13.01,2.08,3.91,6.89,9.35,10.68,12.1l8.02,5.81c3.79,2.74,10.01,7.2,13.83,9.9l7.58,5.36c3.82,2.7,10.5,6.32,14.85,8.05l11.98,4.76c4.35,1.73,8.83,3.14,9.96,3.14s4.27-3.12,6.97-6.94l17.95-25.29c2.71-3.81,5.7-6.3,6.66-5.51s3.43,4.85,5.49,9.05l2.28,4.63c2.07,4.2,7.46,8.58,11.99,9.73l30.57,7.8c4.53,1.16,10.23.61,12.66-1.21s6.27-3.88,8.53-4.58Z"/>
    <path class="cls-1" d="M229.45,228.45c2.26-.7,3.51-5.05,2.78-9.67l-11.24-70.99c-.73-4.62-4.03-9.18-7.33-10.14s-7.99-4.01-10.42-6.79c-2.43-2.78-8.22-4.61-12.87-4.07l-169.24,19.67c-4.65.54-10.82,1.49-13.71,2.1-2.9.62-6,2.1-6.9,3.31s-.24,2.98,1.47,3.94,4.62,1.76,6.49,1.76,6.64,2.03,10.6,4.5l1.99,1.24c3.97,2.48,9.97,7.16,13.34,10.4l5.12,4.94c3.37,3.25,7.83,9.1,9.91,13.01,2.08,3.91,6.89,9.35,10.68,12.1l8.02,5.81c3.79,2.74,10.01,7.2,13.83,9.9l7.58,5.36c3.82,2.7,10.5,6.32,14.85,8.05l11.98,4.76c4.35,1.73,8.83,3.14,9.96,3.14s4.27-3.12,6.97-6.94l17.95-25.29c2.71-3.81,5.7-6.3,6.66-5.51s3.43,4.85,5.49,9.05l2.28,4.63c2.07,4.2,7.46,8.58,11.99,9.73l30.57,7.8c4.53,1.16,10.23.61,12.66-1.21s6.27-3.88,8.53-4.58Z"/>
  </g>
  <g>
    <path class="cls-2" d="M243.51,110.09c1.03,1.18,5.67,1.75,10.33,1.27l231.2-24.01c4.65-.48,9.68-4.5,11.18-8.93l8-23.65c1.5-4.43.66-8.06-1.85-8.06s-6.72,2.02-9.33,4.48c-2.62,2.46-8.57,4.17-13.24,3.78l-78.26-6.45c-4.66-.38-11.08-.57-14.26-.42s-8.69.95-12.23,1.77c-3.54.82-10.06,2.74-14.48,4.27l-9.32,3.22c-4.42,1.53-11.69,3.62-16.16,4.64s-11.4,2.2-15.4,2.61-11.07.24-15.71-.38l-8.53-1.14c-4.64-.62-9.44.77-10.67,3.09-1.23,2.32-5.1,6.26-8.59,8.75s-9.49,6.71-13.34,9.37l-8.24,5.71c-3.84,2.66-9.34,7.2-12.22,10.07-2.88,2.88-4.22,5.82-2.99,6.53,1.23.72,3.08,2.27,4.11,3.45Z"/>
    <path class="cls-1" d="M243.51,110.09c1.03,1.18,5.67,1.75,10.33,1.27l231.2-24.01c4.65-.48,9.68-4.5,11.18-8.93l8-23.65c1.5-4.43.66-8.06-1.85-8.06s-6.72,2.02-9.33,4.48c-2.62,2.46-8.57,4.17-13.24,3.78l-78.26-6.45c-4.66-.38-11.08-.57-14.26-.42s-8.69.95-12.23,1.77c-3.54.82-10.06,2.74-14.48,4.27l-9.32,3.22c-4.42,1.53-11.69,3.62-16.16,4.64s-11.4,2.2-15.4,2.61-11.07.24-15.71-.38l-8.53-1.14c-4.64-.62-9.44.77-10.67,3.09-1.23,2.32-5.1,6.26-8.59,8.75s-9.49,6.71-13.34,9.37l-8.24,5.71c-3.84,2.66-9.34,7.2-12.22,10.07-2.88,2.88-4.22,5.82-2.99,6.53,1.23.72,3.08,2.27,4.11,3.45Z"/>
  </g>
  <g>
    <path class="cls-2" d="M508.53,54.84c1.36-4.47,6.31-8.1,10.98-8.06l63.64.57c4.68.04,9.22,3.11,10.09,6.81s-.15,7.79-2.27,9.08c-2.12,1.29-4.68,4.15-5.67,6.36s-1.85,4.79-1.89,5.75-3.88,2.13-8.54,2.61l-31.65,3.25c-4.65.48-8.75-2.95-9.11-7.61l-.21-2.71c-.36-4.66-4.3-8.03-8.75-7.49-4.45.55-7.88,4.81-7.62,9.48l.1,1.76c.26,4.67-3.32,8.95-7.96,9.5l-2.03.24c-4.64.56-7.33-2.65-5.96-7.12l6.84-22.43Z"/>
    <path class="cls-1" d="M508.53,54.84c1.36-4.47,6.31-8.1,10.98-8.06l63.64.57c4.68.04,9.22,3.11,10.09,6.81s-.15,7.79-2.27,9.08c-2.12,1.29-4.68,4.15-5.67,6.36s-1.85,4.79-1.89,5.75-3.88,2.13-8.54,2.61l-31.65,3.25c-4.65.48-8.75-2.95-9.11-7.61l-.21-2.71c-.36-4.66-4.3-8.03-8.75-7.49-4.45.55-7.88,4.81-7.62,9.48l.1,1.76c.26,4.67-3.32,8.95-7.96,9.5l-2.03.24c-4.64.56-7.33-2.65-5.96-7.12l6.84-22.43Z"/>
  </g>
  <g>
    <path class="cls-2" d="M53.22,128.87c.5,2.61,4.71,4.35,9.37,3.85l123.97-13.16c4.65-.49,8.77-1.9,9.16-3.12s1.53-3.03,2.53-4.01-1.27-4.05-5.03-6.82l-27.12-19.92c-3.77-2.77-8.13-3.97-9.68-2.66-1.56,1.31-6.33,2.81-10.61,3.34-4.28.53-7.87,1.83-7.98,2.88s-2.25,1.97-4.75,2.02-6,1.15-7.78,2.43c-1.78,1.28-2.96,4.42-2.63,6.97s-1.94,5.06-5.05,5.56c-3.11.5-5.8-1.55-5.96-4.55s-4.11-5.03-8.75-4.5l-24.33,2.74c-4.65.52-8.14,4.77-7.76,9.43l.04.43c.38,4.66-3.1,7.96-7.74,7.32l-2.35-.32c-4.63-.63-8.43.76-8.43,3.09s.41,6.38.91,8.99Z"/>
    <path class="cls-1" d="M53.22,128.87c.5,2.61,4.71,4.35,9.37,3.85l123.97-13.16c4.65-.49,8.77-1.9,9.16-3.12s1.53-3.03,2.53-4.01-1.27-4.05-5.03-6.82l-27.12-19.92c-3.77-2.77-8.13-3.97-9.68-2.66-1.56,1.31-6.33,2.81-10.61,3.34-4.28.53-7.87,1.83-7.98,2.88s-2.25,1.97-4.75,2.02-6,1.15-7.78,2.43c-1.78,1.28-2.96,4.42-2.63,6.97s-1.94,5.06-5.05,5.56c-3.11.5-5.8-1.55-5.96-4.55s-4.11-5.03-8.75-4.5l-24.33,2.74c-4.65.52-8.14,4.77-7.76,9.43l.04.43c.38,4.66-3.1,7.96-7.74,7.32l-2.35-.32c-4.63-.63-8.43.76-8.43,3.09s.41,6.38.91,8.99Z"/>
  </g>
  <g>
    <path class="cls-2" d="M140.95,48.31c-.75,4.53,1.76,10.44,5.58,13.13l52.88,37.23c3.82,2.69,9.34,3.62,12.26,2.06s6.99-2.84,9.06-2.84,5.15.58,6.86,1.28c1.71.7,5.21-.94,7.78-3.66s7.84-7.08,11.71-9.7l7.86-5.31c3.88-2.62,9.97-6.86,13.54-9.42s7.77-6.35,9.33-8.42c1.56-2.06.07-6.39-3.31-9.63l-24.66-23.57c-3.38-3.23-7.88-7.69-9.99-9.9-2.11-2.21-6.57-6.71-9.89-10l-2.9-2.87c-3.33-3.29-9.87-6.11-14.55-6.28l-8.25-.3c-4.67-.17-10.87,2.69-13.78,6.36l-.6.76c-2.9,3.67-5.73,8.52-6.29,10.78s-1.07,7.94-1.16,12.62l-.07,3.85c-.08,4.68-3.95,8.94-8.6,9.48l-5.25.61c-4.65.54-8.78-1-9.18-3.41s-4.4-3.65-8.87-2.74c-4.48.91-8.76,5.35-9.51,9.88Z"/>
    <path class="cls-1" d="M140.95,48.31c-.75,4.53,1.76,10.44,5.58,13.13l52.88,37.23c3.82,2.69,9.34,3.62,12.26,2.06s6.99-2.84,9.06-2.84,5.15.58,6.86,1.28c1.71.7,5.21-.94,7.78-3.66s7.84-7.08,11.71-9.7l7.86-5.31c3.88-2.62,9.97-6.86,13.54-9.42s7.77-6.35,9.33-8.42c1.56-2.06.07-6.39-3.31-9.63l-24.66-23.57c-3.38-3.23-7.88-7.69-9.99-9.9-2.11-2.21-6.57-6.71-9.89-10l-2.9-2.87c-3.33-3.29-9.87-6.11-14.55-6.28l-8.25-.3c-4.67-.17-10.87,2.69-13.78,6.36l-.6.76c-2.9,3.67-5.73,8.52-6.29,10.78s-1.07,7.94-1.16,12.62l-.07,3.85c-.08,4.68-3.95,8.94-8.6,9.48l-5.25.61c-4.65.54-8.78-1-9.18-3.41s-4.4-3.65-8.87-2.74c-4.48.91-8.76,5.35-9.51,9.88Z"/>
  </g>
</svg>