<?xml version="1.0" encoding="UTF-8"?>
<svg id="Treptower_Park" data-name="Treptower Park" xmlns="http://www.w3.org/2000/svg" viewBox="0 0 595.26 397.56">
  <defs>
    <style>
      .cls-1 {
        fill: none;
        stroke: #74b674;
        stroke-linecap: round;
        stroke-linejoin: round;
      }

      .cls-2 {
        fill: #74b674;
      }
    </style>
  </defs>
  <path class="cls-2" d="M324,344.88c1.05,1.16,2.91,1.32,4.13.36l114.58-89.57c1.23-.96,2.9-2.84,3.71-4.17l2.9-4.76c.81-1.33.23-2.72-1.28-3.1l-14.96-3.66c-1.51-.37-3.8-1.41-5.07-2.31l-16.67-11.77c-1.27-.9-2.9-2.77-3.61-4.15l-11.61-22.53c-.71-1.39-1.41-3.79-1.55-5.34l-1.17-13.15c-.14-1.55-1.07-3.8-2.08-4.99l-23.08-27.41c-1-1.19-2.9-2.86-4.21-3.7l-31.15-19.92c-1.31-.84-3.59-1.95-5.06-2.47l-40.6-14.38c-1.47-.52-3.82-1.5-5.22-2.18l-56.3-27.21c-1.4-.68-3.61-1.95-4.89-2.83l-37.51-25.62c-1.29-.88-3.01-.52-3.84.81l-14.13,22.75c-.82,1.32-2.03,3.57-2.68,4.98l-6.83,14.9c-.65,1.42-1.52,3.81-1.93,5.31l-5.28,19.18c-.41,1.5-.94,3.99-1.18,5.54l-2.94,19.45c-.23,1.54.43,3.75,1.48,4.91l178.03,197.05Z"/>
  <path class="cls-1" d="M324,344.88c1.05,1.16,2.91,1.32,4.13.36l114.58-89.57c1.23-.96,2.9-2.84,3.71-4.17l2.9-4.76c.81-1.33.23-2.72-1.28-3.1l-14.96-3.66c-1.51-.37-3.8-1.41-5.07-2.31l-16.67-11.77c-1.27-.9-2.9-2.77-3.61-4.15l-11.61-22.53c-.71-1.39-1.41-3.79-1.55-5.34l-1.17-13.15c-.14-1.55-1.07-3.8-2.08-4.99l-23.08-27.41c-1-1.19-2.9-2.86-4.21-3.7l-31.15-19.92c-1.31-.84-3.59-1.95-5.06-2.47l-40.6-14.38c-1.47-.52-3.82-1.5-5.22-2.18l-56.3-27.21c-1.4-.68-3.61-1.95-4.89-2.83l-37.51-25.62c-1.29-.88-3.01-.52-3.84.81l-14.13,22.75c-.82,1.32-2.03,3.57-2.68,4.98l-6.83,14.9c-.65,1.42-1.52,3.81-1.93,5.31l-5.28,19.18c-.41,1.5-.94,3.99-1.18,5.54l-2.94,19.45c-.23,1.54.43,3.75,1.48,4.91l178.03,197.05Z"/>
</svg>