<?xml version="1.0" encoding="UTF-8"?>
<svg id="Viktoriapark" xmlns="http://www.w3.org/2000/svg" viewBox="0 0 595.26 397.56">
  <defs>
    <style>
      .cls-1 {
        fill: none;
        stroke: #74b674;
        stroke-miterlimit: 10;
        stroke-width: .25px;
      }

      .cls-2 {
        fill: #74b674;
      }
    </style>
  </defs>
  <path class="cls-2" d="M322.4,144.12c4.64-.58,7.99,2.17,7.45,6.11s-1.6,9.12-2.35,11.49,1.45,6.08,4.88,8.22,9.91,4.53,14.4,5.31,7.16,3.92,5.93,6.98-4.31,7.45-6.86,9.76-4.36,4.68-4.02,5.25-2.41,2.25-6.12,3.71-9.35,2.35-12.55,1.98-6.98-1.1-8.4-1.61-3.74-.9-5.13-.87-4.56-.41-7.05-.99c-2.48-.58-4.73-.24-5.01.74s-.49,4.57-.49,7.97-3.83,6.18-8.5,6.18h-4.37c-4.68,0-8.5,3.83-8.5,8.5v20.94c0,4.68-1.84,8.5-4.08,8.5s-4-3.83-3.91-8.5l.41-21.19c.09-4.68-1.73-8.59-4.04-8.69s-4.2-1.24-4.2-2.53-1.45-2.35-3.21-2.35-3.21-2.92-3.21-6.49-3.05-6.62-6.78-6.78-6.66-4.12-6.53-8.8l.44-15.16c.13-4.68.28-9.47.32-10.67s.84-3.03,1.78-4.1,2.78-2.35,4.1-2.86,6.19-1.4,10.83-1.98l64.77-8.11Z"/>
  <path class="cls-1" d="M322.4,144.12c4.64-.58,7.99,2.17,7.45,6.11s-1.6,9.12-2.35,11.49,1.45,6.08,4.88,8.22,9.91,4.53,14.4,5.31,7.16,3.92,5.93,6.98-4.31,7.45-6.86,9.76-4.36,4.68-4.02,5.25-2.41,2.25-6.12,3.71-9.35,2.35-12.55,1.98-6.98-1.1-8.4-1.61-3.74-.9-5.13-.87-4.56-.41-7.05-.99c-2.48-.58-4.73-.24-5.01.74s-.49,4.57-.49,7.97-3.83,6.18-8.5,6.18h-4.37c-4.68,0-8.5,3.83-8.5,8.5v20.94c0,4.68-1.84,8.5-4.08,8.5s-4-3.83-3.91-8.5l.41-21.19c.09-4.68-1.73-8.59-4.04-8.69s-4.2-1.24-4.2-2.53-1.45-2.35-3.21-2.35-3.21-2.92-3.21-6.49-3.05-6.62-6.78-6.78-6.66-4.12-6.53-8.8l.44-15.16c.13-4.68.28-9.47.32-10.67s.84-3.03,1.78-4.1,2.78-2.35,4.1-2.86,6.19-1.4,10.83-1.98l64.77-8.11Z"/>
</svg>