<?xml version="1.0" encoding="UTF-8"?>
<svg id="Volkspark_Wilmersdorf" data-name="Volkspark Wilmersdorf" xmlns="http://www.w3.org/2000/svg" viewBox="0 0 595.26 397.56">
  <defs>
    <style>
      .cls-1 {
        fill: none;
        stroke: #74b674;
        stroke-miterlimit: 10;
        stroke-width: .25px;
      }

      .cls-2 {
        fill: #74b674;
      }
    </style>
  </defs>
  <g>
    <path class="cls-2" d="M408.62,204.92c-3.33-3.29-4.42-9.44-2.43-13.67l3.35-7.12c1.99-4.23,6.44-5.11,9.88-1.94l.45.41c3.44,3.16,9.01,8.42,12.36,11.68l7.94,7.73c3.35,3.26,8.57,6.77,11.59,7.79,3.02,1.02,7.85,2.09,10.72,2.38,2.88.29,8.06-.07,11.52-.79s8.31-2.66,10.79-4.3c2.48-1.64,6.17-4.29,8.21-5.89s4.45-2.5,5.36-1.99,1.6,4.75,1.54,9.43l-.3,21.52c-.06,4.68-1.07,8.68-2.24,8.9-1.17.22-2.21,1.41-2.32,2.65s-4.03,2.25-8.7,2.25h-17.28c-4.68,0-11.84-.54-15.92-1.19-4.08-.66-10.14-3.88-13.46-7.17l-31.06-30.68Z"/>
    <path class="cls-1" d="M408.62,204.92c-3.33-3.29-4.42-9.44-2.43-13.67l3.35-7.12c1.99-4.23,6.44-5.11,9.88-1.94l.45.41c3.44,3.16,9.01,8.42,12.36,11.68l7.94,7.73c3.35,3.26,8.57,6.77,11.59,7.79,3.02,1.02,7.85,2.09,10.72,2.38,2.88.29,8.06-.07,11.52-.79s8.31-2.66,10.79-4.3c2.48-1.64,6.17-4.29,8.21-5.89s4.45-2.5,5.36-1.99,1.6,4.75,1.54,9.43l-.3,21.52c-.06,4.68-1.07,8.68-2.24,8.9-1.17.22-2.21,1.41-2.32,2.65s-4.03,2.25-8.7,2.25h-17.28c-4.68,0-11.84-.54-15.92-1.19-4.08-.66-10.14-3.88-13.46-7.17l-31.06-30.68Z"/>
  </g>
  <g>
    <path class="cls-2" d="M388.08,188.85c4.32,1.79,9.48-.22,11.46-4.45l2.64-5.64c1.98-4.24.09-9.21-4.21-11.05l-9.14-3.91c-4.3-1.84-8.15-2.71-8.57-1.93s-4.5.65-9.08-.28l-18.41-3.76c-4.58-.94-11.92-2.17-16.32-2.75-4.39-.57-10.91-1.04-14.48-1.04h-12.91c-3.53,0-7.96.17-9.85.37s-4.98-.23-6.87-.97-5.51.5-8.06,2.76-6.94,5.28-9.78,6.72c-2.83,1.44-5.82,4.39-6.64,6.57s2.12,5.22,6.54,6.76l17.67,6.18c4.42,1.54,11.85,2.7,16.53,2.56l50.76-1.45c4.68-.13,10.75.06,13.5.43,2.75.37,8.54,2.13,12.86,3.92l2.34.97Z"/>
    <path class="cls-1" d="M388.08,188.85c4.32,1.79,9.48-.22,11.46-4.45l2.64-5.64c1.98-4.24.09-9.21-4.21-11.05l-9.14-3.91c-4.3-1.84-8.15-2.71-8.57-1.93s-4.5.65-9.08-.28l-18.41-3.76c-4.58-.94-11.92-2.17-16.32-2.75-4.39-.57-10.91-1.04-14.48-1.04h-12.91c-3.53,0-7.96.17-9.85.37s-4.98-.23-6.87-.97-5.51.5-8.06,2.76-6.94,5.28-9.78,6.72c-2.83,1.44-5.82,4.39-6.64,6.57s2.12,5.22,6.54,6.76l17.67,6.18c4.42,1.54,11.85,2.7,16.53,2.56l50.76-1.45c4.68-.13,10.75.06,13.5.43,2.75.37,8.54,2.13,12.86,3.92l2.34.97Z"/>
  </g>
  <g>
    <path class="cls-2" d="M156.82,152.19c4.67.19,8.39,4.18,8.27,8.85l-.18,6.49c-.13,4.68-4.05,8.33-8.73,8.12l-18.64-.84c-4.67-.21-12.3,0-16.95.49l-8.01.82c-4.65.48-9,1.05-9.66,1.27s-2.66-3.14-4.45-7.46l-.37-.9c-1.79-4.32-2.85-8.47-2.37-9.22s.95-2.08,1.04-2.96,3.97-1.95,8.63-2.38l24.61-2.27c4.66-.43,12.29-.62,16.96-.43l9.85.41Z"/>
    <path class="cls-1" d="M156.82,152.19c4.67.19,8.39,4.18,8.27,8.85l-.18,6.49c-.13,4.68-4.05,8.33-8.73,8.12l-18.64-.84c-4.67-.21-12.3,0-16.95.49l-8.01.82c-4.65.48-9,1.05-9.66,1.27s-2.66-3.14-4.45-7.46l-.37-.9c-1.79-4.32-2.85-8.47-2.37-9.22s.95-2.08,1.04-2.96,3.97-1.95,8.63-2.38l24.61-2.27c4.66-.43,12.29-.62,16.96-.43l9.85.41Z"/>
  </g>
  <g>
    <path class="cls-2" d="M177.97,177.03c-4.67-.2-8.35-4.19-8.17-8.86l.16-4.1c.18-4.67,4.15-8.41,8.82-8.3l10.32.24c4.68.11,8.5-.45,8.5-1.24s3.83-1.44,8.5-1.44h28.54c4.68,0,8.5.5,8.5,1.12s2.98,1.33,6.63,1.6c3.65.26,6.92,1.2,7.27,2.08s.46,2.14.24,2.8-3.56,3.36-7.42,5.99l-6.09,4.15c-3.86,2.64-10.83,5.16-15.49,5.6l-21.58,2.06c-4.66.44-9.04.41-9.74-.07s-5.1-1.04-9.77-1.24l-9.21-.39Z"/>
    <path class="cls-1" d="M177.97,177.03c-4.67-.2-8.35-4.19-8.17-8.86l.16-4.1c.18-4.67,4.15-8.41,8.82-8.3l10.32.24c4.68.11,8.5-.45,8.5-1.24s3.83-1.44,8.5-1.44h28.54c4.68,0,8.5.5,8.5,1.12s2.98,1.33,6.63,1.6c3.65.26,6.92,1.2,7.27,2.08s.46,2.14.24,2.8-3.56,3.36-7.42,5.99l-6.09,4.15c-3.86,2.64-10.83,5.16-15.49,5.6l-21.58,2.06c-4.66.44-9.04.41-9.74-.07s-5.1-1.04-9.77-1.24l-9.21-.39Z"/>
  </g>
</svg>