<?xml version="1.0" encoding="UTF-8"?>
<svg id="Volkspark_Rehberge" data-name="Volkspark Rehberge" xmlns="http://www.w3.org/2000/svg" viewBox="0 0 595.26 397.56">
  <defs>
    <style>
      .cls-1 {
        fill: #74b674;
      }
    </style>
  </defs>
  <path class="cls-1" d="M307.97,323.79c3.89,2.6,9.68,1.92,12.87-1.5l78.49-84.24c3.19-3.42,3.77-8.81,1.29-11.97s-2.97-7.35-1.09-9.32,1.37-6.8-1.14-10.75l-12.95-20.43c-2.5-3.95-7.22-9.93-10.48-13.28l-96.55-99.32c-3.26-3.35-6.58-2.33-7.38,2.28l-4.86,27.97c-.8,4.61-5.2,7.6-9.78,6.66l-31.49-6.5c-4.58-.95-9.03,2.04-9.89,6.64l-23.7,126.48c-.86,4.6,1.62,10.48,5.51,13.08l111.16,74.19Z"/>
</svg>