<?xml version="1.0" encoding="UTF-8"?>
<svg id="Volkspark_Humboldthain" data-name="Volkspark Humboldthain" xmlns="http://www.w3.org/2000/svg" viewBox="0 0 595.26 397.56">
  <defs>
    <style>
      .cls-1 {
        fill: #74b674;
      }
    </style>
  </defs>
  <path class="cls-1" d="M363.29,214.66c4.25-1.96,6.1-7.03,4.11-11.26l-29.81-63.54c-1.99-4.23-7.41-8.2-12.04-8.81l-1.65-.22c-4.64-.61-12.22-.57-16.85.09l-7.04,1.01c-4.63.66-11.86,2.88-16.06,4.94l-6.65,3.25c-4.2,2.05-10.51,6.27-14.02,9.36l-5.76,5.08c-3.51,3.09-8.86,8.53-11.9,12.09l-7.47,8.75c-3.04,3.56-7.17,9.21-9.18,12.56s-3.98,9.9-4.38,14.56v.11c-.41,4.66.2,12.18,1.35,16.72l.21.81c1.15,4.53,2.53,8.79,3.06,9.46s.21,1.93-.73,2.8,1.03,4.26,4.38,7.53l20.24,19.78c3.34,3.27,7.62,4.57,9.49,2.9s6.89-4.65,11.13-6.61l89.56-41.35Z"/>
</svg>