<?xml version="1.0" encoding="UTF-8"?>
<svg id="Volkspark_Hasenheide" data-name="Volkspark Hasenheide" xmlns="http://www.w3.org/2000/svg" viewBox="0 0 595.26 397.56">
  <defs>
    <style>
      .cls-1 {
        fill: none;
        stroke: #74b674;
        stroke-miterlimit: 10;
        stroke-width: .25px;
      }

      .cls-2 {
        fill: #74b674;
      }
    </style>
  </defs>
  <path class="cls-2" d="M213.63,250.86c-4.41-1.56-7.66-6.65-7.22-11.31l5.65-60.52c.43-4.66,4.49-9.46,9-10.67l4.21-1.13c4.52-1.21,10.71-5.1,13.76-8.65l7.21-8.38c3.05-3.55,5.02-10.24,4.37-14.87l-1.69-12.09c-.65-4.63.83-8.09,3.29-7.68,2.46.41,4.47-1.79,4.47-4.89s3.73-4.8,8.3-3.77l8.94,2.01c4.56,1.03,7.91,3.83,7.45,6.23s2.89,5.15,7.47,6.12l26.77,5.64c4.58.96,8.32-.07,8.32-2.29s3.76-3.35,8.36-2.5l10.94,2.02c4.6.85,8.17,5.37,7.94,10.04l-.22,4.5c-.23,4.67,2.12,8.92,5.22,9.45s5.38,4.78,5.07,9.44l-1,14.95c-.31,4.67,3.26,8.51,7.94,8.55l12.57.09c4.68.03,8.5,3.89,8.5,8.57v.44c0,4.68-3.8,8.96-8.44,9.51l-4.6.55c-4.64.55-8.44,4.59-8.44,8.98s-3.54,8.22-7.87,8.51-7.84,4.36-7.8,9.04l.06,6.61c.04,4.68,1.18,10.13,2.52,12.12s2.73,5.87,3.09,8.62-1.28,5.43-3.62,5.96-4.69,4.74-5.21,9.36,0,10.22,1.17,12.45-1.22,4.81-5.32,5.75-9.99,1.94-13.09,2.23-7.65-.09-10.11-.85-8.07-2.66-12.48-4.23l-95.47-33.89Z"/>
  <path class="cls-1" d="M213.63,250.86c-4.41-1.56-7.66-6.65-7.22-11.31l5.65-60.52c.43-4.66,4.49-9.46,9-10.67l4.21-1.13c4.52-1.21,10.71-5.1,13.76-8.65l7.21-8.38c3.05-3.55,5.02-10.24,4.37-14.87l-1.69-12.09c-.65-4.63.83-8.09,3.29-7.68,2.46.41,4.47-1.79,4.47-4.89s3.73-4.8,8.3-3.77l8.94,2.01c4.56,1.03,7.91,3.83,7.45,6.23s2.89,5.15,7.47,6.12l26.77,5.64c4.58.96,8.32-.07,8.32-2.29s3.76-3.35,8.36-2.5l10.94,2.02c4.6.85,8.17,5.37,7.94,10.04l-.22,4.5c-.23,4.67,2.12,8.92,5.22,9.45s5.38,4.78,5.07,9.44l-1,14.95c-.31,4.67,3.26,8.51,7.94,8.55l12.57.09c4.68.03,8.5,3.89,8.5,8.57v.44c0,4.68-3.8,8.96-8.44,9.51l-4.6.55c-4.64.55-8.44,4.59-8.44,8.98s-3.54,8.22-7.87,8.51-7.84,4.36-7.8,9.04l.06,6.61c.04,4.68,1.18,10.13,2.52,12.12s2.73,5.87,3.09,8.62-1.28,5.43-3.62,5.96-4.69,4.74-5.21,9.36,0,10.22,1.17,12.45-1.22,4.81-5.32,5.75-9.99,1.94-13.09,2.23-7.65-.09-10.11-.85-8.07-2.66-12.48-4.23l-95.47-33.89Z"/>
</svg>