<?xml version="1.0" encoding="UTF-8"?>
<svg id="Volkspark_Prenzlauer_Berg" data-name="Volkspark Prenzlauer Berg" xmlns="http://www.w3.org/2000/svg" viewBox="0 0 595.26 397.56">
  <defs>
    <style>
      .cls-1 {
        fill: none;
        stroke: #74b674;
        stroke-linecap: round;
        stroke-linejoin: round;
      }

      .cls-2 {
        fill: #74b674;
      }
    </style>
  </defs>
  <path class="cls-2" d="M279.51,208.88c1.52.36,2.41,1.88,1.98,3.38l-13.25,46.59c-.43,1.5.36,3.31,1.74,4.03l21.7,11.19c1.39.71,3.63.67,4.99-.1l17.74-10.05c1.36-.77,2.84-2.62,3.29-4.11l.02-.07c.45-1.49,1.95-3.32,3.32-4.06l32.25-17.36c1.37-.74,2.98-1.18,3.57-.99s2.09-.41,3.33-1.36l15.3-11.61c1.24-.94,1.78-2.9,1.2-4.34l-11.73-29.12c-.58-1.45-2.15-3.29-3.48-4.1l-107.35-65.33c-1.33-.81-3.03-.35-3.77,1.02l-1.83,3.37c-.74,1.37-2.37,2.01-3.62,1.42s-3.01-.03-3.91,1.24l-14.15,19.96c-.9,1.27-.59,3.04.69,3.93l1.55,1.07c1.28.89,1.62,2.67.76,3.97l-11.18,16.77c-.86,1.3-1.26,3.6-.88,5.11l.53,2.14c.38,1.51,1.96,2.63,3.51,2.49l1.99-.19c1.55-.15,2.94,1.01,3.08,2.56l.68,7.48c.14,1.55,1.5,3.12,3.01,3.48l48.91,11.58Z"/>
  <path class="cls-1" d="M279.51,208.88c1.52.36,2.41,1.88,1.98,3.38l-13.25,46.59c-.43,1.5.36,3.31,1.74,4.03l21.7,11.19c1.39.71,3.63.67,4.99-.1l17.74-10.05c1.36-.77,2.84-2.62,3.29-4.11l.02-.07c.45-1.49,1.95-3.32,3.32-4.06l32.25-17.36c1.37-.74,2.98-1.18,3.57-.99s2.09-.41,3.33-1.36l15.3-11.61c1.24-.94,1.78-2.9,1.2-4.34l-11.73-29.12c-.58-1.45-2.15-3.29-3.48-4.1l-107.35-65.33c-1.33-.81-3.03-.35-3.77,1.02l-1.83,3.37c-.74,1.37-2.37,2.01-3.62,1.42s-3.01-.03-3.91,1.24l-14.15,19.96c-.9,1.27-.59,3.04.69,3.93l1.55,1.07c1.28.89,1.62,2.67.76,3.97l-11.18,16.77c-.86,1.3-1.26,3.6-.88,5.11l.53,2.14c.38,1.51,1.96,2.63,3.51,2.49l1.99-.19c1.55-.15,2.94,1.01,3.08,2.56l.68,7.48c.14,1.55,1.5,3.12,3.01,3.48l48.91,11.58Z"/>
</svg>