<?xml version="1.0" encoding="UTF-8"?>
<svg id="Volkspark_Friedrichshain" data-name="Volkspark Friedrichshain" xmlns="http://www.w3.org/2000/svg" viewBox="0 0 595.26 397.56">
  <defs>
    <style>
      .cls-1 {
        fill: none;
        stroke: #74b674;
        stroke-miterlimit: 10;
        stroke-width: .25px;
      }

      .cls-2 {
        fill: #74b674;
      }
    </style>
  </defs>
  <path class="cls-2" d="M394.14,115.18c3.22-3.39,7.93-2.96,10.47.97l31.17,48.15c2.54,3.93,1.45,9.28-2.42,11.9l-43.6,29.49c-3.87,2.62-6.29,6.21-5.37,7.97s.04,4.21-1.95,5.43c-1.99,1.23-5.72-.97-8.28-4.88l-8.8-13.43c-2.56-3.91-8.48-7.31-13.15-7.55l-8.66-.45c-4.67-.24-11.48,1.96-15.13,4.88l-20.45,16.4c-3.65,2.93-6.64,6.45-6.64,7.83s1.44,3.39,3.21,4.46,5.65,3.02,8.64,4.32,6.06,3.25,6.83,4.32,1.27,3.08,1.11,4.46-.4,4.58-.56,7.11,1.41,5.92,3.48,7.52,3.41,6.74,2.98,11.39l-.67,7.31c-.43,4.66-3.85,9.16-7.61,10s-6.89.47-6.97-.84-2.08-3.25-4.46-4.32-5.23.46-6.34,3.4c-1.11,2.94-5.85,5.35-10.52,5.35h-5.43c-4.68,0-11.48-2.41-15.11-5.35l-16.88-13.66c-3.64-2.94-9.35-8.03-12.69-11.3l-13.76-13.47c-3.34-3.27-8.72-8.72-11.95-12.1l-23.37-24.49c-3.23-3.38-9.03-8.31-12.89-10.96l-15.25-10.45c-3.86-2.64-7.39-5.5-7.84-6.34s-.08-2.03.84-2.65,5.44-1.81,10.04-2.66l155.79-28.69c4.6-.85,10.6,1.56,13.34,5.35l4.53,6.28c2.74,3.79,5.79,7.02,6.79,7.17s4.45-2.5,7.66-5.89l39.85-42.01Z"/>
  <path class="cls-1" d="M394.14,115.18c3.22-3.39,7.93-2.96,10.47.97l31.17,48.15c2.54,3.93,1.45,9.28-2.42,11.9l-43.6,29.49c-3.87,2.62-6.29,6.21-5.37,7.97s.04,4.21-1.95,5.43c-1.99,1.23-5.72-.97-8.28-4.88l-8.8-13.43c-2.56-3.91-8.48-7.31-13.15-7.55l-8.66-.45c-4.67-.24-11.48,1.96-15.13,4.88l-20.45,16.4c-3.65,2.93-6.64,6.45-6.64,7.83s1.44,3.39,3.21,4.46,5.65,3.02,8.64,4.32,6.06,3.25,6.83,4.32,1.27,3.08,1.11,4.46-.4,4.58-.56,7.11,1.41,5.92,3.48,7.52,3.41,6.74,2.98,11.39l-.67,7.31c-.43,4.66-3.85,9.16-7.61,10s-6.89.47-6.97-.84-2.08-3.25-4.46-4.32-5.23.46-6.34,3.4c-1.11,2.94-5.85,5.35-10.52,5.35h-5.43c-4.68,0-11.48-2.41-15.11-5.35l-16.88-13.66c-3.64-2.94-9.35-8.03-12.69-11.3l-13.76-13.47c-3.34-3.27-8.72-8.72-11.95-12.1l-23.37-24.49c-3.23-3.38-9.03-8.31-12.89-10.96l-15.25-10.45c-3.86-2.64-7.39-5.5-7.84-6.34s-.08-2.03.84-2.65,5.44-1.81,10.04-2.66l155.79-28.69c4.6-.85,10.6,1.56,13.34,5.35l4.53,6.28c2.74,3.79,5.79,7.02,6.79,7.17s4.45-2.5,7.66-5.89l39.85-42.01Z"/>
</svg>